<svg xmlns="http://www.w3.org/2000/svg" width="294.599" height="48.154" viewBox="0 0 294.599 48.154">
  <g id="Group_6490" data-name="Group 6490" transform="translate(-305.513 -106.468)">
    <g id="Group_6486" data-name="Group 6486" transform="translate(305.513 106.468)">
      <path id="Path_39758" data-name="Path 39758" d="M342.709,127.822H324.862l26.771,23.207Z" transform="translate(-302.257 -102.875)" fill="#e45f16"/>
      <path id="Path_39759" data-name="Path 39759" d="M334.059,106.468H322.647l-8.924,23.207h11.413Z" transform="translate(-304.131 -106.468)" fill="#ffbc00"/>
      <path id="Path_39760" data-name="Path 39760" d="M325.849,127.822H314.436l-8.924,23.207h11.414Z" transform="translate(-305.513 -102.875)" fill="#2659a5"/>
      <path id="Path_39761" data-name="Path 39761" d="M333.545,107.5l-8.457,22H342Z" transform="translate(-302.219 -106.294)" fill="#3bb5e8"/>
    </g>
    <g id="Group_6489" data-name="Group 6489" transform="translate(369.184 109.366)">
      <path id="Path_39762" data-name="Path 39762" d="M551.849,122.088v-.018a3.409,3.409,0,0,1,6.818-.02v.02a3.409,3.409,0,0,1-6.818.018Zm6.459-.018v-.02a3.051,3.051,0,1,0-6.1.02v.018a3.051,3.051,0,1,0,6.1-.018Zm-4.425-1.884h1.591a1.485,1.485,0,0,1,1.083.387.994.994,0,0,1,.292.744v.019a1.061,1.061,0,0,1-.828,1.074l.96,1.346h-.81l-.867-1.234h-.744v1.234h-.678Zm1.563,1.743c.443,0,.706-.217.706-.556v-.019c0-.359-.263-.556-.706-.556h-.885v1.131Z" transform="translate(-327.739 -107.315)" fill="#3b3b3b"/>
      <g id="Group_6488" data-name="Group 6488">
        <g id="Group_6487" data-name="Group 6487">
          <path id="Path_39763" data-name="Path 39763" d="M377.9,110.149h4.15l17.889,39.537h-4.766l-4.6-10.375H369.212l-4.655,10.375h-4.542Zm10.936,25.18-8.916-20.021-8.973,20.021Z" transform="translate(-360.014 -108.747)" fill="#3b3b3b"/>
          <path id="Path_39764" data-name="Path 39764" d="M397.549,119.247h4.318v7.571c2.131-4.823,6.338-8.3,11.833-8.075V123.4h-.336c-6.337,0-11.5,4.542-11.5,13.291v11.553h-4.318Z" transform="translate(-353.699 -107.303)" fill="#3b3b3b"/>
          <path id="Path_39765" data-name="Path 39765" d="M412,133.9v-.112a15.1,15.1,0,0,1,26.47-9.983l-2.86,3.028c-2.3-2.411-4.879-4.374-8.8-4.374-5.889,0-10.375,4.991-10.375,11.216v.112c0,6.28,4.6,11.272,10.654,11.272,3.7,0,6.562-1.851,8.861-4.319l2.749,2.579c-2.916,3.254-6.394,5.609-11.833,5.609A14.887,14.887,0,0,1,412,133.9Z" transform="translate(-351.268 -107.318)" fill="#3b3b3b"/>
          <path id="Path_39766" data-name="Path 39766" d="M439.022,108.949h4.318v16.992a10.981,10.981,0,0,1,9.927-5.664c7.011,0,11.1,4.71,11.1,11.609v18h-4.319V132.952c0-5.384-2.916-8.749-8.019-8.749-4.991,0-8.693,3.645-8.693,9.085v16.6h-4.318Z" transform="translate(-346.721 -108.949)" fill="#3b3b3b"/>
          <path id="Path_39767" data-name="Path 39767" d="M466.046,119.173h4.318v28.995h-4.318Z" transform="translate(-342.175 -107.229)" fill="#3b3b3b"/>
          <path id="Path_39768" data-name="Path 39768" d="M480.73,144.335v5.553h-4.318V108.949h4.318v17.777c2.356-3.477,5.778-6.449,11.1-6.449,6.954,0,13.853,5.5,13.853,15.029v.112c0,9.477-6.842,15.086-13.853,15.086C486.451,150.5,482.974,147.589,480.73,144.335Zm20.527-8.86v-.112c0-6.842-4.71-11.216-10.208-11.216a10.811,10.811,0,0,0-10.486,11.16v.112c0,6.729,5.1,11.216,10.486,11.216C496.658,146.635,501.257,142.485,501.257,135.475Z" transform="translate(-340.431 -108.949)" fill="#3b3b3b"/>
          <path id="Path_39769" data-name="Path 39769" d="M505.26,137.176v-18h4.318V136.11c0,5.383,2.916,8.749,8.02,8.749,4.935,0,8.693-3.646,8.693-9.085v-16.6h4.262v28.995h-4.262v-5.047a11.048,11.048,0,0,1-9.927,5.664C509.355,148.785,505.26,144.073,505.26,137.176Z" transform="translate(-335.577 -107.229)" fill="#3b3b3b"/>
          <path id="Path_39770" data-name="Path 39770" d="M530.748,144.538l2.187-3.084a16.953,16.953,0,0,0,10.039,3.7c3.477,0,6-1.794,6-4.6v-.112c0-2.916-3.422-4.037-7.236-5.1-4.541-1.29-9.589-2.86-9.589-8.188v-.112c0-4.991,4.15-8.3,9.87-8.3a19.82,19.82,0,0,1,10.43,3.2l-1.961,3.252a16.4,16.4,0,0,0-8.581-2.8c-3.422,0-5.609,1.794-5.609,4.206v.112c0,2.748,3.589,3.813,7.459,4.992,4.486,1.346,9.31,3.084,9.31,8.3v.112c0,5.5-4.543,8.693-10.319,8.693A19.937,19.937,0,0,1,530.748,144.538Z" transform="translate(-331.289 -107.301)" fill="#3b3b3b"/>
        </g>
        <circle id="Ellipse_395" data-name="Ellipse 395" cx="2.534" cy="2.534" r="2.534" transform="translate(123.521 0.545)" fill="#3b3c3c"/>
      </g>
    </g>
  </g>
</svg>
