<svg xmlns="http://www.w3.org/2000/svg" width="30.229" height="9.149" viewBox="0 0 30.229 9.149">
  <g id="Group_6389" data-name="Group 6389" transform="translate(-540.75 -3235.834)">
    <path id="Path_4191" data-name="Path 4191" d="M105,139.659a.75.75,0,0,1-.53-1.28l3.294-3.294-3.294-3.294a.75.75,0,0,1,1.061-1.061l4.355,4.355-4.355,4.355A.748.748,0,0,1,105,139.659Z" transform="translate(461.094 3105.324)" fill="#fff"/>
    <path id="Line_1711" data-name="Line 1711" d="M28,.75H0A.75.75,0,0,1-.75,0,.75.75,0,0,1,0-.75H28a.75.75,0,0,1,.75.75A.75.75,0,0,1,28,.75Z" transform="translate(541.5 3240.5)" fill="#fff"/>
  </g>
</svg>
