<svg xmlns="http://www.w3.org/2000/svg" width="60" height="56.902" viewBox="0 0 60 56.902">
  <path id="noun_open_folder_511522" data-name="noun_open folder_511522" d="M67.923,26.847H57.907V16.929l5.162,5.148A1.152,1.152,0,0,0,64.7,20.451l-7.132-7.114a1.157,1.157,0,0,0-1.632,0l-7.132,7.114a1.152,1.152,0,0,0,1.632,1.627L55.6,16.929v9.918H47.154a5.957,5.957,0,0,1-4.66-2.544L41.044,21.8a6.046,6.046,0,0,0-4.659-2.631H14.077A3.082,3.082,0,0,0,11,22.235v44.6A3.082,3.082,0,0,0,14.077,69.9H67.923A3.082,3.082,0,0,0,71,66.833V29.916A3.082,3.082,0,0,0,67.923,26.847Zm.769,30.012v9.975a.779.779,0,0,1-.769.768H14.077a.779.779,0,0,1-.769-.768V40.7a.779.779,0,0,1,.769-.767H67.923a.779.779,0,0,1,.769.767Zm0-19.122a3.055,3.055,0,0,0-.769-.109H14.077a3.055,3.055,0,0,0-.769.109v-15.5a.778.778,0,0,1,.769-.767H36.385a3.826,3.826,0,0,1,2.681,1.514l1.45,2.505a8.255,8.255,0,0,0,6.638,3.662H55.6v4.692a1.154,1.154,0,0,0,2.308,0V29.149H67.923a.779.779,0,0,1,.769.768Z" transform="translate(-11 -13)" fill="#ea7723"/>
</svg>
