<svg xmlns="http://www.w3.org/2000/svg" width="196.2" height="47" viewBox="0 0 196.2 47">
  <g id="Group_6508" data-name="Group 6508" transform="translate(-486.015 -37.283)">
    <path id="Path_39793" data-name="Path 39793" d="M617.071,39.861v-.015a2.563,2.563,0,0,1,5.126-.015v.015a2.563,2.563,0,0,1-5.126.015Zm4.858-.015v-.015a2.294,2.294,0,1,0-4.588.015v.015a2.294,2.294,0,1,0,4.588-.015ZM618.6,38.43h1.2a1.122,1.122,0,0,1,.815.29.744.744,0,0,1,.219.558v.015a.8.8,0,0,1-.623.808l.722,1.012h-.609l-.65-.927h-.56v.927h-.51Zm1.177,1.309c.332,0,.531-.162.531-.417v-.015c0-.27-.2-.418-.531-.418h-.666v.85Z" transform="translate(60.018 0)" fill="#fff"/>
    <path id="Path_39794" data-name="Path 39794" d="M632.768,72.8,617.409,57.32l-4.574,4.552,6.284,6.284-.311.23a11.984,11.984,0,0,1-6.469,1.833c-7.492,0-12.828-6.091-12.828-13.422v-.108c0-7.331,5.228-13.314,12.721-13.314s12.83,6.091,12.83,13.422V56.9a13.435,13.435,0,0,1-.824,4.644l5.077,5.119a19.254,19.254,0,0,0,2.7-9.87v-.108c0-10.618-8.086-19.405-19.675-19.405A19.334,19.334,0,0,0,592.557,56.8V56.9c0,10.62,8.086,19.405,19.675,19.405a19.5,19.5,0,0,0,11.48-3.556l.026.022,4.482,4.48Z" transform="translate(48.792 0)" fill="#e45f16"/>
    <path id="Path_39795" data-name="Path 39795" d="M586.122,37.729h6.631V75.461h-6.631Z" transform="translate(45.845 0.204)" fill="#e45f16"/>
    <g id="Group_6507" data-name="Group 6507" transform="translate(486.015 37.387)">
      <path id="Path_39796" data-name="Path 39796" d="M486.015,70.127,490,65.385c3.611,3.126,7.223,4.9,11.913,4.9,4.1,0,6.683-1.887,6.683-4.743v-.108c0-2.7-1.509-4.151-8.516-5.768-8.032-1.942-12.56-4.313-12.56-11.267V48.3c0-6.469,5.39-10.943,12.883-10.943A20.918,20.918,0,0,1,514.1,42.1l-3.557,5.014c-3.4-2.534-6.791-3.881-10.242-3.881-3.88,0-6.144,1.994-6.144,4.474v.106c0,2.912,1.725,4.2,8.948,5.931,7.978,1.941,12.129,4.8,12.129,11.05V64.9c0,7.061-5.552,11.266-13.476,11.266A23.241,23.241,0,0,1,486.015,70.127Z" transform="translate(-486.015 -37.354)" fill="#fff"/>
      <path id="Path_39797" data-name="Path 39797" d="M507.951,44.269h6.521v4.743c2.1-2.964,5.068-5.336,9.649-5.336,6.739,0,13.26,5.336,13.26,14.771v.108c0,9.433-6.468,14.769-13.26,14.769a11.6,11.6,0,0,1-9.649-5.012V81.355h-6.521Zm22.8,14.285v-.108c0-5.5-3.719-9.111-8.14-9.111s-8.3,3.665-8.3,9.111v.108c0,5.5,3.881,9.109,8.3,9.109C527.087,67.664,530.752,64.16,530.752,58.554Z" transform="translate(-475.969 -34.459)" fill="#fff"/>
      <path id="Path_39798" data-name="Path 39798" d="M548.732,72.679v-3.5a11.5,11.5,0,0,1-9.219,4.1c-5.39,0-10.134-3.073-10.134-8.787v-.108c0-6.306,4.906-9.324,11.535-9.324a23.935,23.935,0,0,1,7.87,1.185V55.7c0-3.935-2.479-6.091-7.007-6.091a19.83,19.83,0,0,0-8.14,1.779l-1.779-5.228a24.41,24.41,0,0,1,10.836-2.372c8.408,0,12.5,4.421,12.5,12.021V72.679Zm.16-11.912a18.618,18.618,0,0,0-6.521-1.133c-4.1,0-6.523,1.671-6.523,4.421v.108c0,2.694,2.426,4.2,5.5,4.2,4.313,0,7.547-2.426,7.547-5.983Z" transform="translate(-466.156 -34.408)" fill="#fff"/>
      <g id="Group_6506" data-name="Group 6506" transform="translate(91.539 9.227)">
        <g id="Group_6505" data-name="Group 6505" transform="translate(24.104)">
          <path id="Path_39799" data-name="Path 39799" d="M565.334,58.617V58.51c0-8.143,5.769-14.827,13.91-14.827,9.057,0,13.641,7.118,13.641,15.311,0,.593-.054,1.187-.108,1.834H571.858c.7,4.636,3.989,7.224,8.2,7.224a10.34,10.34,0,0,0,7.71-3.4l3.827,3.4a14.4,14.4,0,0,1-11.646,5.336C571.7,73.389,565.334,67.405,565.334,58.617Zm21.081-2.1c-.432-4.206-2.91-7.494-7.224-7.494-3.99,0-6.793,3.073-7.386,7.494Z" transform="translate(-565.334 -43.683)" fill="#fff"/>
        </g>
        <path id="Path_39800" data-name="Path 39800" d="M570.963,64.43a9.815,9.815,0,0,1-7.119,3.3c-5.014,0-8.519-4.1-8.519-9.166v-.108c0-4.959,3.451-9.057,8.2-9.057,3.288,0,5.39,1.455,7.383,3.556a18.01,18.01,0,0,1,2.764-5.632,14.181,14.181,0,0,0-10.093-3.639A14.683,14.683,0,0,0,548.8,58.563v.108a14.535,14.535,0,0,0,14.719,14.718A14.008,14.008,0,0,0,573.6,69.62,16.936,16.936,0,0,1,570.963,64.43Z" transform="translate(-548.801 -43.683)" fill="#fff"/>
      </g>
    </g>
  </g>
</svg>
