<svg id="Group_14" data-name="Group 14" xmlns="http://www.w3.org/2000/svg" width="17.936" height="17.393" viewBox="0 0 17.936 17.393">
  <g id="Group_113" data-name="Group 113">
    <path id="Path_232" data-name="Path 232" d="M16.287.314H1.068A.972.972,0,0,0-.019,1.4V16.62a.972.972,0,0,0,1.087,1.087H16.287c.735,0,1.631-.4,1.631-1.087V1.4C17.868.715,17.022.314,16.287.314ZM5.416,14.989H2.7V6.836H5.416ZM3.786,5.749A1.726,1.726,0,0,1,2.155,4.119,1.726,1.726,0,0,1,3.786,2.488,1.726,1.726,0,0,1,5.416,4.119,1.726,1.726,0,0,1,3.786,5.749ZM15.2,14.989H12.482v-3.8c0-.98-.259-2.174-1.631-2.174s-1.087,1.1-1.087,2.174v3.8H7.047V6.836H9.221V7.923h0a3.307,3.307,0,0,1,2.718-1.631c2.645,0,3.261,2.095,3.261,4.348Z" transform="translate(0.019 -0.314)" fill="#fff"/>
  </g>
</svg>
