<svg xmlns="http://www.w3.org/2000/svg" width="42.229" height="9.149" viewBox="0 0 42.229 9.149"><g transform="translate(-528.75 -3235.834)"><path d="M105,139.659a.75.75,0,0,1-.53-1.28l3.294-3.294-3.294-3.294a.75.75,0,0,1,1.061-1.061l4.355,4.355-4.355,4.355A.748.748,0,0,1,105,139.659Z" transform="translate(461.094 3105.324)" fill="#ea7723"/><path d="M40,.75H0A.75.75,0,0,1-.75,0,.75.75,0,0,1,0-.75H40a.75.75,0,0,1,.75.75A.75.75,0,0,1,40,.75Z" transform="translate(529.5 3240.5)" fill="#ea7723"/></g></svg>