<svg xmlns="http://www.w3.org/2000/svg" width="302.633" height="48.626" viewBox="0 0 302.633 48.626">
  <g id="Group_6504" data-name="Group 6504" transform="translate(-304.763 -249.304)">
    <g id="Group_6499" data-name="Group 6499" transform="translate(304.763 249.304)">
      <g id="Group_6497" data-name="Group 6497">
        <path id="Path_39779" data-name="Path 39779" d="M318.447,272.492a13.583,13.583,0,1,1,19.209-19.209Z" transform="translate(-303.646 -249.304)" fill="#ffbc00"/>
        <path id="Path_39780" data-name="Path 39780" d="M327.95,281.7a13.583,13.583,0,0,1-19.208-19.209Z" transform="translate(-304.763 -247.786)" fill="#e45f16"/>
      </g>
      <g id="Group_6498" data-name="Group 6498" transform="translate(14.793 10.733)">
        <path id="Path_39781" data-name="Path 39781" d="M327.734,262.907a13.583,13.583,0,1,1,19.209,19.209Z" transform="translate(-316.912 -258.929)" fill="#3bb5e8"/>
        <path id="Path_39782" data-name="Path 39782" d="M337.238,272.116a13.583,13.583,0,0,1-19.209,19.209Z" transform="translate(-318.029 -257.411)" fill="#2659a5"/>
      </g>
    </g>
    <g id="Group_6503" data-name="Group 6503" transform="translate(366.265 253.906)">
      <path id="Path_39783" data-name="Path 39783" d="M570.316,265.933v-.017a3.254,3.254,0,0,1,6.508-.019v.019a3.254,3.254,0,0,1-6.508.017Zm6.167-.017V265.9a2.913,2.913,0,1,0-5.825.019v.017a2.913,2.913,0,1,0,5.825-.017Zm-4.225-1.8h1.52a1.417,1.417,0,0,1,1.034.369.948.948,0,0,1,.279.71v.018a1.014,1.014,0,0,1-.792,1.025l.918,1.285h-.774l-.827-1.178h-.709v1.178h-.648Zm1.493,1.664c.422,0,.674-.207.674-.531v-.018c0-.342-.252-.531-.674-.531h-.845v1.079Z" transform="translate(-335.692 -252.368)" fill="#3b3b3b"/>
      <g id="Group_6502" data-name="Group 6502">
        <g id="Group_6500" data-name="Group 6500" transform="translate(0 0.552)">
          <path id="Path_39784" data-name="Path 39784" d="M359.915,286.473l2.624-3.1c3.907,3.533,7.654,5.3,12.846,5.3,5.033,0,8.351-2.676,8.351-6.37v-.107c0-3.479-1.873-5.461-9.743-7.12-8.618-1.873-12.579-4.658-12.579-10.813v-.107c0-5.888,5.192-10.225,12.312-10.225a19.549,19.549,0,0,1,13.167,4.6l-2.462,3.265a16.459,16.459,0,0,0-10.813-4.069c-4.871,0-7.975,2.677-7.975,6.05v.107c0,3.534,1.927,5.513,10.171,7.281,8.35,1.82,12.2,4.871,12.2,10.6v.107c0,6.424-5.353,10.6-12.793,10.6A21.928,21.928,0,0,1,359.915,286.473Z" transform="translate(-359.915 -253.926)" fill="#3b3b3b"/>
          <path id="Path_39785" data-name="Path 39785" d="M401.721,287.984a11.455,11.455,0,0,0,8.726-3.909l2.569,2.3a14.284,14.284,0,0,1-11.4,5.192c-7.6,0-13.812-5.834-13.812-14.453,0-8.03,5.621-14.452,13.276-14.452,8.191,0,12.9,6.53,12.9,14.667,0,.375,0,.8-.052,1.445H391.979C392.567,284.611,396.85,287.984,401.721,287.984Zm8.084-12.527c-.482-5.033-3.372-9.314-8.833-9.314-4.764,0-8.4,3.96-8.992,9.314Z" transform="translate(-356.704 -252.92)" fill="#3b3b3b"/>
          <path id="Path_39786" data-name="Path 39786" d="M415.355,263.242h4.122v7.227c2.034-4.6,6.05-7.923,11.3-7.709V267.2h-.321c-6.048,0-10.974,4.336-10.974,12.687v11.026h-4.122Z" transform="translate(-353.532 -252.91)" fill="#3b3b3b"/>
          <path id="Path_39787" data-name="Path 39787" d="M432.875,263.242H437v7.227c2.035-4.6,6.05-7.923,11.3-7.709V267.2h-.32c-6.05,0-10.975,4.336-10.975,12.687v11.026h-4.122Z" transform="translate(-351.515 -252.91)" fill="#3b3b3b"/>
          <path id="Path_39788" data-name="Path 39788" d="M447.327,282.882v-.108c0-5.941,4.817-9.046,11.832-9.046a28.965,28.965,0,0,1,8.458,1.179v-.858c0-4.924-3-7.495-8.191-7.495a19.236,19.236,0,0,0-8.4,1.982l-1.231-3.373a22.683,22.683,0,0,1,10.064-2.355c3.906,0,6.958,1.071,8.939,3.051,1.928,1.928,2.89,4.6,2.89,8.137V290.91h-4.067v-4.122a12.137,12.137,0,0,1-9.957,4.711C452.467,291.5,447.327,288.555,447.327,282.882Zm20.342-2.141v-2.57a28.457,28.457,0,0,0-8.084-1.177c-5.139,0-8.082,2.247-8.082,5.567v.107c0,3.479,3.212,5.513,6.96,5.513C463.548,288.181,467.669,285.13,467.669,280.74Z" transform="translate(-349.851 -252.904)" fill="#3b3b3b"/>
          <path id="Path_39789" data-name="Path 39789" d="M471.183,263.191h4.551l9.314,22.965,9.368-22.965h4.443l-12.044,27.891h-3.64Z" transform="translate(-347.105 -252.859)" fill="#3b3b3b"/>
          <path id="Path_39790" data-name="Path 39790" d="M499.743,263.191h4.121v27.675h-4.121Z" transform="translate(-343.817 -252.859)" fill="#3b3b3b"/>
          <path id="Path_39791" data-name="Path 39791" d="M521.052,287.984a11.455,11.455,0,0,0,8.726-3.909l2.569,2.3a14.284,14.284,0,0,1-11.4,5.192c-7.6,0-13.812-5.834-13.812-14.453,0-8.03,5.621-14.452,13.276-14.452,8.191,0,12.9,6.53,12.9,14.667,0,.375,0,.8-.052,1.445H511.31C511.9,284.611,516.181,287.984,521.052,287.984Zm8.084-12.527c-.482-5.033-3.372-9.314-8.833-9.314-4.764,0-8.4,3.96-8.992,9.314Z" transform="translate(-342.966 -252.92)" fill="#3b3b3b"/>
          <path id="Path_39792" data-name="Path 39792" d="M531.374,263.2h4.389l7.281,22.216,7.44-22.323h3.426l7.495,22.323,7.279-22.216h4.283l-9.742,27.891h-3.587L552.2,269.252,544.7,291.093h-3.639Z" transform="translate(-340.175 -252.87)" fill="#3b3b3b"/>
        </g>
        <g id="Group_6501" data-name="Group 6501" transform="translate(155.589)">
          <circle id="Ellipse_397" data-name="Ellipse 397" cx="2.419" cy="2.419" r="2.419" fill="#3b3c3c"/>
        </g>
      </g>
    </g>
  </g>
</svg>
