<svg xmlns="http://www.w3.org/2000/svg" width="171.084" height="63.113" viewBox="0 0 171.084 63.113">
  <g id="Group_6496" data-name="Group 6496" transform="translate(-305.846 -391.262)">
    <g id="Group_6491" data-name="Group 6491" transform="translate(305.846 391.262)">
      <path id="Path_39771" data-name="Path 39771" d="M346.695,412.86l11.8-6.821-25.584-14.776-25.567,14.78,11.8,6.81,13.776-7.953Z" transform="translate(-305.363 -391.262)" fill="#ffbc00"/>
      <path id="Path_39772" data-name="Path 39772" d="M332.419,435.678l-14.76-8.546.007-17.014-11.82-6.824.005,31.817L332.419,450.5Z" transform="translate(-305.846 -387.387)" fill="#2659a5"/>
      <path id="Path_39773" data-name="Path 39773" d="M327.434,431.523l.008,14.775,26.543-15.334V416.194Z" transform="translate(-298.893 -383.231)" fill="#3bb5e8"/>
      <path id="Path_39774" data-name="Path 39774" d="M330.045,419.2l-13.776-7.966v14.784l13.776,7.953,27.535-15.9V403.294Z" transform="translate(-302.489 -387.387)" fill="#e45f16"/>
    </g>
    <g id="Group_6495" data-name="Group 6495" transform="translate(377.33 399.423)">
      <path id="Path_39775" data-name="Path 39775" d="M429.415,401.73v-.021a3.858,3.858,0,0,1,7.716-.021v.021a3.858,3.858,0,0,1-7.716.021Zm7.31-.021v-.021a3.453,3.453,0,1,0-6.905.021v.021a3.453,3.453,0,1,0,6.905-.021Zm-5.008-2.131h1.8a1.678,1.678,0,0,1,1.226.438,1.122,1.122,0,0,1,.331.841v.022a1.2,1.2,0,0,1-.937,1.214l1.087,1.524h-.916l-.981-1.4h-.842v1.4h-.767Zm1.769,1.972c.5,0,.8-.246.8-.629V400.9c0-.406-.3-.629-.8-.629h-1v1.28Z" transform="translate(-337.53 -397.301)" fill="#3b3b3b"/>
      <g id="Group_6494" data-name="Group 6494">
        <g id="Group_6492" data-name="Group 6492" transform="translate(0 0.528)">
          <path id="Path_39776" data-name="Path 39776" d="M359.915,436.516l3.111-3.681c4.633,4.188,9.075,6.283,15.23,6.283,5.967,0,9.9-3.173,9.9-7.552v-.128c0-4.125-2.221-6.473-11.551-8.439-10.217-2.222-14.913-5.522-14.913-12.822v-.126c0-6.983,6.156-12.122,14.6-12.122a23.17,23.17,0,0,1,15.611,5.458l-2.919,3.871a19.512,19.512,0,0,0-12.82-4.823c-5.775,0-9.456,3.173-9.456,7.172v.126c0,4.188,2.285,6.538,12.059,8.632,9.9,2.158,14.469,5.775,14.469,12.566v.126c0,7.617-6.346,12.566-15.167,12.566A25.99,25.99,0,0,1,359.915,436.516Z" transform="translate(-359.915 -397.803)" fill="#3b3b3b"/>
          <path id="Path_39777" data-name="Path 39777" d="M389.2,407.194h4.888v32.813H389.2Z" transform="translate(-350.484 -394.819)" fill="#3b3b3b"/>
          <path id="Path_39778" data-name="Path 39778" d="M433.878,439.022a22.147,22.147,0,0,1-14.026,4.761c-13.518,0-22.593-10.6-22.593-22.848v-.127c0-12.249,9.2-22.974,22.72-22.974s22.593,10.6,22.593,22.847c.063.063.063.063,0,.127a23.056,23.056,0,0,1-5.331,14.914l5.9,4.886-3.428,3.745Zm-3.681-3.236-8.251-7.044L425.311,425l8.186,7.426a18.7,18.7,0,0,0,3.871-11.488v-.127c0-10.091-7.363-18.341-17.516-18.341s-17.391,8.123-17.391,18.214v.127c0,10.091,7.364,18.341,17.518,18.341A16.732,16.732,0,0,0,430.2,435.786Z" transform="translate(-347.887 -397.834)" fill="#3b3b3b"/>
        </g>
        <g id="Group_6493" data-name="Group 6493" transform="translate(38.316)">
          <circle id="Ellipse_396" data-name="Ellipse 396" cx="2.868" cy="2.868" r="2.868" fill="#3b3c3c"/>
        </g>
      </g>
    </g>
  </g>
</svg>
