<svg xmlns="http://www.w3.org/2000/svg" width="17.423" height="14.132" viewBox="0 0 17.423 14.132">
  <path id="Path_32" data-name="Path 32" d="M43.125,16.128C49.6,16.128,53.157,10.6,53.157,5.8V5.258a8.793,8.793,0,0,0,2.112-1.631,8.387,8.387,0,0,1-2.112.544A3.252,3.252,0,0,0,54.741,2.54a7.463,7.463,0,0,1-2.112.544A3.416,3.416,0,0,0,49.989,2a3.946,3.946,0,0,0-3.7,3.8c0,.294-.1.348,0,.544A10.064,10.064,0,0,1,38.9,2.54c-.286.49,0,1.488,0,2.174a2.982,2.982,0,0,0,1.056,2.718,3.084,3.084,0,0,1-1.584-.544h0a4.15,4.15,0,0,0,3.168,3.8,3.8,3.8,0,0,1-1.056,0c-.19,0-.338.1-.528,0a3.1,3.1,0,0,0,3.168,2.174A6.7,6.7,0,0,1,38.9,14.5a3.812,3.812,0,0,1-1.056,0,8.289,8.289,0,0,0,5.28,1.631" transform="translate(-37.846 -1.997)" fill="#fff" fill-rule="evenodd"/>
</svg>
