<svg id="Group_6379" data-name="Group 6379" xmlns="http://www.w3.org/2000/svg" width="116.211" height="26.036" viewBox="0 0 116.211 26.036">
  <path id="Path_39738" data-name="Path 39738" d="M1226.035,626.2q0-5.991,0-11.983c0-.993.043-1.019,1.048-.842a7,7,0,0,1,3.243,1.365.6.6,0,0,0,.777.03,10.42,10.42,0,0,1,12.837,1.575c.372.344.56.269.881-.035a10.386,10.386,0,0,1,14.609-.13,9.638,9.638,0,0,1,3.178,7.1c.064,5.059.009,10.119.03,15.178,0,.654-.215.839-.85.785-2.9-.245-4.335-1.714-4.374-4.638-.042-3.171-.022-6.342-.024-9.513a12.353,12.353,0,0,0-.267-2.885,5.129,5.129,0,0,0-10.037.872c-.3,5.006-.066,10.018-.135,15.027-.016,1.2,0,1.2-1.216,1.067-2.476-.281-3.695-1.466-3.921-3.944-.236-2.583-.047-5.177-.1-7.765a41.516,41.516,0,0,0-.138-4.641,5.02,5.02,0,0,0-5.389-4.325,5.072,5.072,0,0,0-4.8,4.678c-.249,3.555-.066,7.114-.13,10.67a11.494,11.494,0,0,1-.1,2.1,3.841,3.841,0,0,1-3.48,3.194c-1.866.208-1.644.293-1.647-1.468Q1226.027,631.94,1226.035,626.2Z" transform="translate(-1146.431 -613.244)" fill="#008bff"/>
  <path id="Path_39739" data-name="Path 39739" d="M687.469,634.08c.247.18.521.1.775.1q5.045.01,10.09,0a17.552,17.552,0,0,1,2.244.135,3.878,3.878,0,0,1,3.422,3.5c.119,1.675.575,1.6-1.422,1.6q-8.675,0-17.349,0a18.162,18.162,0,0,1-2.461-.149,4.231,4.231,0,0,1-3.438-4.868,1.651,1.651,0,0,1,.6-.8q7.089-7.078,14.19-14.144a5.221,5.221,0,0,1,.754-.52,1.068,1.068,0,0,0-.979-.3c-3.291-.008-6.582,0-9.872-.012a18.531,18.531,0,0,1-2.533-.146c-2.185-.313-3.548-2.151-3.471-4.639.01-.309.177-.427.462-.43.194,0,.387-.008.581-.008h18.365a12.471,12.471,0,0,1,2.025.134,4,4,0,0,1,3.3,3.559,2.759,2.759,0,0,1-.971,2.583c-4.627,4.543-9.2,9.138-13.791,13.721C687.789,633.6,687.507,633.748,687.469,634.08Z" transform="translate(-678.014 -613.388)" fill="#008bff"/>
  <path id="Path_39740" data-name="Path 39740" d="M848.86,626.4a13.053,13.053,0,1,1,12.993,13.058A12.955,12.955,0,0,1,848.86,626.4Zm13.054-7.716a7.77,7.77,0,1,0-.021,15.541,7.771,7.771,0,1,0,.021-15.541Z" transform="translate(-824.045 -613.429)" fill="#008bff"/>
  <path id="Path_39741" data-name="Path 39741" d="M1037.743,626.375a13.025,13.025,0,1,1,12.982,13.037A12.936,12.936,0,0,1,1037.743,626.375Zm5.228.009a7.793,7.793,0,1,0,7.817-7.737A7.738,7.738,0,0,0,1042.971,626.383Z" transform="translate(-985.487 -613.391)" fill="#008bff"/>
</svg>
